Coordinates
version=1
nRows=11
nColumns=42
inDegrees=yes

Units are S.I. units (second, meters, Newtons, ...)
If the header above contains a line with 'inDegrees', this indicates whether rotational values are in degrees (yes) or radians (no).

endheader
time	pelvis_tilt	pelvis_list	pelvis_rotation	pelvis_tx	pelvis_ty	pelvis_tz	hip_flexion_r	hip_adduction_r	hip_rotation_r	knee_angle_r	knee_adduction_r	knee_angle_r_beta	ankle_angle_r	subtalar_angle_r	mtp_angle_r	hip_flexion_l	hip_adduction_l	hip_rotation_l	knee_angle_l	knee_adduction_l	knee_angle_l_beta	ankle_angle_l	subtalar_angle_l	mtp_angle_l	lumbar_extension	lumbar_bending	lumbar_rotation	arm_flex_r	arm_add_r	arm_rot_r	elbow_flex_r	pro_sup_r	wrist_flex_r	wrist_dev_r	arm_flex_l	arm_add_l	arm_rot_l	elbow_flex_l	pro_sup_l	wrist_flex_l	wrist_dev_l
      0.60000000	     -4.45207002	      0.12716045	     -1.57713307	     -0.70970546	      0.85237923	     -0.39648779	     31.81047729	     -2.53117212	     -7.98156254	     24.00264041	      5.36437605	      0.41892510	     -0.73398725	    -11.10404000	     -7.92295301	     -4.61342122	     -1.92292801	     -3.07288266	      8.99431026	     10.82303375	      0.15698033	     18.20278646	     -2.88151903	     -7.92295301	     -3.58752431	      1.01808193	      0.22292017	     -4.50283517	    -15.83652579	      2.63213589	     32.55173125	     90.00000001	      0.00000000	      0.00000000	     10.22078826	    -12.54450746	    -13.50494277	     34.09418391	     90.00000001	      0.00000000	      0.00000000
      0.61000000	     -4.02358317	     -0.07119878	     -1.24982560	     -0.69741248	      0.85095170	     -0.39608778	     30.90040237	     -2.42633740	     -8.67317624	     20.89510020	      5.36005846	      0.36468830	     -0.70518911	     -9.74360325	     -7.90575469	     -5.99087559	     -2.35980860	     -3.02483470	      9.03900951	     11.21032442	      0.15776048	     18.71170281	     -2.39755224	     -7.90575469	     -3.91816533	      1.30755599	     -0.21235634	     -4.87909587	    -15.87698390	      1.88038094	     32.44137521	     90.00000001	      0.00000000	      0.00000000	     10.59077971	    -12.64851705	    -13.14237278	     34.26282814	     90.00000001	      0.00000000	      0.00000000
      0.62000000	     -4.17135665	      0.27342663	     -0.96070799	     -0.68554974	      0.84872661	     -0.39616099	     30.86646950	     -2.95178190	     -8.98969112	     18.50191092	      5.50540050	      0.32291926	     -0.79207149	     -8.41283231	     -7.89705233	     -6.51111819	     -1.99016056	     -2.89460131	      9.42502403	     11.14887876	      0.16449770	     19.02628737	     -2.16639209	     -7.89705233	     -3.61419019	      1.05315364	     -0.70672474	     -5.30750491	    -16.00452680	      1.61517754	     32.47738707	     90.00000001	      0.00000000	      0.00000000	     10.80368287	    -12.77348024	    -12.90700071	     34.49180046	     90.00000001	      0.00000000	      0.00000000
      0.63000000	     -4.01576940	      0.25495153	     -0.63972141	     -0.67323074	      0.84698513	     -0.39584674	     30.37674251	     -3.03503990	     -9.56409888	     16.33614677	      5.45398387	      0.28511955	     -0.66534602	     -6.81082542	     -7.87935948	     -7.42688737	     -2.16560455	     -2.75878160	      9.76160402	     11.29576029	      0.17037213	     19.35491025	     -1.82064639	     -7.87935948	     -3.63871868	      1.17313948	     -1.16252588	     -5.66738729	    -16.08468905	      1.04147404	     32.38397210	     90.00000001	      0.00000000	      0.00000000	     10.98560434	    -12.89702650	    -12.50866021	     34.76643519	     90.00000001	      0.00000000	      0.00000000
      0.64000000	     -4.04571867	      0.32826939	     -0.37707335	     -0.66106615	      0.84511704	     -0.39557490	     30.18355605	     -3.21007588	     -9.98099554	     14.70989777	      5.44148337	      0.25673615	     -0.50306218	     -5.32517920	     -7.86274985	     -8.01629344	     -2.19893120	     -2.53355326	     10.31043659	     11.34967811	      0.17995107	     19.57515416	     -1.63318475	     -7.86274985	     -3.47463496	      1.21363342	     -1.64340674	     -5.93897399	    -16.18301242	      0.62324240	     32.29916479	     90.00000001	      0.00000000	      0.00000000	     11.03945890	    -13.01874978	    -12.16503126	     35.03509976	     90.00000001	      0.00000000	      0.00000000
      0.65000000	     -4.26136507	      0.50696194	     -0.14013761	     -0.64889625	      0.84317033	     -0.39532497	     30.25484238	     -3.52005882	    -10.05198574	     13.59437091	      5.53662019	      0.23726653	     -0.54830584	     -4.43789843	     -7.85703482	     -8.35749231	     -2.06210078	     -2.20026847	     10.90896998	     11.27069936	      0.19039744	     19.53363030	     -1.54465246	     -7.85703482	     -3.09854227	      1.13577089	     -2.01685566	     -6.31829717	    -16.34841798	      0.43505380	     32.31919124	     90.00000001	      0.00000000	      0.00000000	     11.11132143	    -13.07892363	    -12.02035033	     35.30333119	     90.00000001	      0.00000000	      0.00000000
      0.66000000	     -4.38451745	      0.48702574	      0.10844899	     -0.63665819	      0.84156750	     -0.39485285	     30.18023790	     -3.56551924	    -10.06614630	     12.79533957	      5.50987260	      0.22332080	     -0.48487379	     -3.56919143	     -7.85058711	     -8.69367033	     -2.24346925	     -1.81657779	     11.71646382	     11.35559116	      0.20449087	     19.39317707	     -1.58946978	     -7.85058711	     -2.85172587	      1.26744864	     -2.41655813	     -6.55391032	    -16.48249020	      0.13698088	     32.20686233	     90.00000001	      0.00000000	      0.00000000	     11.08359405	    -13.14851646	    -11.78520278	     35.62845162	     90.00000001	      0.00000000	      0.00000000
      0.67000000	     -4.49623623	      0.40128519	      0.21951907	     -0.62437666	      0.84018388	     -0.39419156	     30.20223395	     -3.48370636	    -10.01484481	     12.58783281	      5.45553769	      0.21969913	     -0.45512097	     -3.09566736	     -7.84603596	     -9.02369702	     -2.47829517	     -1.38950072	     12.54193252	     11.43607296	      0.21889802	     19.07974035	     -1.62289563	     -7.84603596	     -2.63509083	      1.47774913	     -2.57691464	     -6.78429246	    -16.66045060	     -0.08530043	     32.05495392	     90.00000001	      0.00000000	      0.00000000	     11.08116188	    -13.10127085	    -11.63228528	     35.96590931	     90.00000001	      0.00000000	      0.00000000
      0.68000000	     -4.61665378	      0.00452846	      0.47683122	     -0.61177618	      0.83910808	     -0.39334515	     30.08108845	     -3.06532086	    -10.22109317	     12.50015798	      5.22621222	      0.21816891	     -0.50279419	     -2.51675218	     -7.83479369	     -9.13736292	     -3.17654798	     -1.06196063	     13.81074704	     11.64375949	      0.24104301	     18.57580864	     -2.14720920	     -7.83479369	     -2.36083822	      2.01298529	     -2.99259339	     -6.87810954	    -16.73529539	     -0.64885606	     31.74404558	     90.00000001	      0.00000000	      0.00000000	     10.79261915	    -13.16586005	    -11.29677060	     36.41019294	     90.00000001	      0.00000000	      0.00000000
      0.69000000	     -4.69563523	     -0.19706088	      0.57574298	     -0.59927150	      0.83831097	     -0.39243138	     30.03342164	     -2.81185615	     -9.95043268	     12.93299109	      5.12017431	      0.22572328	     -0.48140575	     -2.38864217	     -7.82831456	     -9.27053451	     -3.61602237	     -0.67515598	     15.05917275	     11.84723108	      0.26283215	     17.68014760	     -2.40854264	     -7.82831456	     -2.17842573	      2.33179533	     -3.16270563	     -7.00471220	    -16.87905523	     -0.87192546	     31.58404421	     90.00000001	      0.00000000	      0.00000000	     10.62109685	    -13.11521130	    -11.21478347	     36.77089790	     90.00000001	      0.00000000	      0.00000000
      0.70000000	     -4.74615897	     -0.41452391	      0.54322455	     -0.58657188	      0.83786142	     -0.39167705	     29.92066657	     -2.52952367	     -9.41657231	     13.58731940	      5.10653743	      0.23714346	     -0.57656943	     -2.28070141	     -7.82502054	     -9.48953662	     -3.91005420	     -0.05153281	     16.12312699	     11.88586358	      0.28140165	     17.02667417	     -2.47501282	     -7.82502054	     -2.02200580	      2.72880898	     -3.15033541	     -7.12876978	    -17.14921076	     -1.00558634	     31.41850053	     90.00000001	      0.00000000	      0.00000000	     10.44126996	    -12.95028734	    -11.16504645	     37.02176361	     90.00000001	      0.00000000	      0.00000000
